HIERARCHY
ROOT Hips
{
  OFFSET 5.84602e-005 68.8428 3.50346
  CHANNELS 6 Xposition Yposition Zposition Zrotation Xrotation Yrotation
  JOINT Spine
  {
    OFFSET 0 8.597 -4.6522
    CHANNELS 3 Zrotation Xrotation Yrotation
    JOINT Spine1
    {
      OFFSET 0 7.8454 0.4098
      CHANNELS 3 Zrotation Xrotation Yrotation
      JOINT Spine2
      {
        OFFSET 0 9.7078 -2.1609
        CHANNELS 3 Zrotation Xrotation Yrotation
        JOINT Neck
        {
          OFFSET 0 21.8761 -0.4549
          CHANNELS 3 Zrotation Xrotation Yrotation
          JOINT Head
          {
            OFFSET 0 12.3537 3.3602
            CHANNELS 3 Zrotation Xrotation Yrotation
            End Site
            {
              OFFSET 0.0001 18.9506 0.5657
            }
          }
        }
        JOINT LeftShoulder
        {
          OFFSET 2.2086 21.1115 7.2329
          CHANNELS 3 Zrotation Xrotation Yrotation
          JOINT LeftArm
          {
            OFFSET 13.1193 3.0282 -4.8998
            CHANNELS 3 Zrotation Xrotation Yrotation
            JOINT LeftForeArm
            {
              OFFSET 27.4081 -0.0973053 -0.2375
              CHANNELS 3 Zrotation Xrotation Yrotation
              JOINT LeftHand
              {
                OFFSET 22.8641 0.0662994 -0.1369
                CHANNELS 3 Zrotation Xrotation Yrotation
                JOINT LeftHandIndex1
                {
                  OFFSET 8.8614 0.775009 2.4612
                  CHANNELS 3 Zrotation Xrotation Yrotation
                  JOINT LeftHandIndex2
                  {
                    OFFSET 3.3146 -0.808304 0.5841
                    CHANNELS 3 Zrotation Xrotation Yrotation
                    JOINT LeftHandIndex3
                    {
                      OFFSET 2.2628 -0.552002 0.3989
                      CHANNELS 3 Zrotation Xrotation Yrotation
                      End Site
                      {
                        OFFSET 1.6102 -0.4807 0.2612
                      }
                    }
                  }
                }
                JOINT LeftHandMiddle1
                {
                  OFFSET 8.9937 0.895004 0.2143
                  CHANNELS 3 Zrotation Xrotation Yrotation
                  JOINT LeftHandMiddle2
                  {
                    OFFSET 4.0984 0.0113983 -0.0242
                    CHANNELS 3 Zrotation Xrotation Yrotation
                    JOINT LeftHandMiddle3
                    {
                      OFFSET 2.2716 0.00689697 -0.0138001
                      CHANNELS 3 Zrotation Xrotation Yrotation
                      End Site
                      {
                        OFFSET 2.0404 -0.1441 0.0027
                      }
                    }
                  }
                }
                JOINT LeftHandRing1
                {
                  OFFSET 8.5234 0.597198 -2.0164
                  CHANNELS 3 Zrotation Xrotation Yrotation
                  JOINT LeftHandRing2
                  {
                    OFFSET 3.7188 -0.188293 -0.2328
                    CHANNELS 3 Zrotation Xrotation Yrotation
                    JOINT LeftHandRing3
                    {
                      OFFSET 2.1191 -0.106598 -0.1332
                      CHANNELS 3 Zrotation Xrotation Yrotation
                      End Site
                      {
                        OFFSET 1.8737 -0.2304 -0.0886
                      }
                    }
                  }
                }
                JOINT LeftHandPinky1
                {
                  OFFSET 7.9094 -0.601089 -3.4825
                  CHANNELS 3 Zrotation Xrotation Yrotation
                  JOINT LeftHandPinky2
                  {
                    OFFSET 2.2874 -0.477005 -0.6314
                    CHANNELS 3 Zrotation Xrotation Yrotation
                    JOINT LeftHandPinky3
                    {
                      OFFSET 1.6774 -0.349396 -0.4633
                      CHANNELS 3 Zrotation Xrotation Yrotation
                      End Site
                      {
                        OFFSET 1.4888 -0.4091 -0.3416
                      }
                    }
                  }
                }
                JOINT LeftHandThumb1
                {
                  OFFSET 1.833 -1.3875 1.3896
                  CHANNELS 3 Zrotation Xrotation Yrotation
                  JOINT LeftHandThumb2
                  {
                    OFFSET 3.4129 -1.121 2.5732
                    CHANNELS 3 Zrotation Xrotation Yrotation
                    JOINT LeftHandThumb3
                    {
                      OFFSET 2.2474 -0.804199 1.6192
                      CHANNELS 3 Zrotation Xrotation Yrotation
                      End Site
                      {
                        OFFSET 1.6527 -0.5689 1.1317
                      }
                    }
                  }
                }
              }
            }
          }
        }
        JOINT RightShoulder
        {
          OFFSET -2.2086 21.1115 7.2329
          CHANNELS 3 Zrotation Xrotation Yrotation
          JOINT RightArm
          {
            OFFSET -13.1216 3.0287 -4.9007
            CHANNELS 3 Zrotation Xrotation Yrotation
            JOINT RightForeArm
            {
              OFFSET -27.4081 -0.0973053 -0.2375
              CHANNELS 3 Zrotation Xrotation Yrotation
              JOINT RightHand
              {
                OFFSET -22.8641 0.0664063 -0.1369
                CHANNELS 3 Zrotation Xrotation Yrotation
                JOINT RightHandIndex1
                {
                  OFFSET -8.8614 0.774994 2.4612
                  CHANNELS 3 Zrotation Xrotation Yrotation
                  JOINT RightHandIndex2
                  {
                    OFFSET -3.3146 -0.808304 0.5841
                    CHANNELS 3 Zrotation Xrotation Yrotation
                    JOINT RightHandIndex3
                    {
                      OFFSET -2.2628 -0.552002 0.3989
                      CHANNELS 3 Zrotation Xrotation Yrotation
                      End Site
                      {
                        OFFSET -1.6102 -0.4807 0.2612
                      }
                    }
                  }
                }
                JOINT RightHandMiddle1
                {
                  OFFSET -8.9937 0.894989 0.2143
                  CHANNELS 3 Zrotation Xrotation Yrotation
                  JOINT RightHandMiddle2
                  {
                    OFFSET -4.0984 0.0113983 -0.0242
                    CHANNELS 3 Zrotation Xrotation Yrotation
                    JOINT RightHandMiddle3
                    {
                      OFFSET -2.2716 0.00691223 -0.0138001
                      CHANNELS 3 Zrotation Xrotation Yrotation
                      End Site
                      {
                        OFFSET -2.0404 -0.1441 0.0027
                      }
                    }
                  }
                }
                JOINT RightHandRing1
                {
                  OFFSET -8.5234 0.597198 -2.0164
                  CHANNELS 3 Zrotation Xrotation Yrotation
                  JOINT RightHandRing2
                  {
                    OFFSET -3.7188 -0.188309 -0.2328
                    CHANNELS 3 Zrotation Xrotation Yrotation
                    JOINT RightHandRing3
                    {
                      OFFSET -2.1191 -0.106598 -0.1332
                      CHANNELS 3 Zrotation Xrotation Yrotation
                      End Site
                      {
                        OFFSET -1.8737 -0.2304 -0.0886
                      }
                    }
                  }
                }
                JOINT RightHandPinky1
                {
                  OFFSET -7.9094 -0.601105 -3.4825
                  CHANNELS 3 Zrotation Xrotation Yrotation
                  JOINT RightHandPinky2
                  {
                    OFFSET -2.2874 -0.477005 -0.6314
                    CHANNELS 3 Zrotation Xrotation Yrotation
                    JOINT RightHandPinky3
                    {
                      OFFSET -1.6774 -0.349396 -0.4633
                      CHANNELS 3 Zrotation Xrotation Yrotation
                      End Site
                      {
                        OFFSET -1.4888 -0.4091 -0.3416
                      }
                    }
                  }
                }
                JOINT RightHandThumb1
                {
                  OFFSET -1.833 -1.38751 1.3896
                  CHANNELS 3 Zrotation Xrotation Yrotation
                  JOINT RightHandThumb2
                  {
                    OFFSET -3.41299 -1.12099 2.5732
                    CHANNELS 3 Zrotation Xrotation Yrotation
                    JOINT RightHandThumb3
                    {
                      OFFSET -2.24741 -0.804108 1.6192
                      CHANNELS 3 Zrotation Xrotation Yrotation
                      End Site
                      {
                        OFFSET -1.6527 -0.5689 1.1317
                      }
                    }
                  }
                }
              }
            }
          }
        }
      }
    }
  }
  JOINT RightUpLeg
  {
    OFFSET -9.1966 3.8861 -0.7581
    CHANNELS 3 Zrotation Xrotation Yrotation
    JOINT RightLeg
    {
      OFFSET -0.7359 -41.0265 0
      CHANNELS 3 Zrotation Xrotation Yrotation
      JOINT RightFoot
      {
        OFFSET 0 -40.2855 0
        CHANNELS 3 Zrotation Xrotation Yrotation
        JOINT RightToeBase
        {
          OFFSET 0 -5.6122 11.7359
          CHANNELS 3 Zrotation Xrotation Yrotation
          End Site
          {
            OFFSET 0 0 7.8731
          }
        }
      }
    }
  }
  JOINT LeftUpLeg
  {
    OFFSET 9.1965 3.8864 -0.7581
    CHANNELS 3 Zrotation Xrotation Yrotation
    JOINT LeftLeg
    {
      OFFSET 0.7359 -41.0268 0
      CHANNELS 3 Zrotation Xrotation Yrotation
      JOINT LeftFoot
      {
        OFFSET 0 -40.2855 0
        CHANNELS 3 Zrotation Xrotation Yrotation
        JOINT LeftToeBase
        {
          OFFSET 0 -5.6122 11.7359
          CHANNELS 3 Zrotation Xrotation Yrotation
          End Site
          {
            OFFSET 0 0 7.8731
          }
        }
      }
    }
  }
}
MOTION
Frames:	5
Frame Time:	0.0333333
5.84602e-005 68.8428 3.50346 0 0 -0 0 0 -0 0 0 -0 0 0 -0 0 0 -0 0 0 -0 0 0 -0 0 0 -0 0 0 -0 0 0 -0 0 0 -0 0 0 -0 0 0 -0 0 0 -0 -0.0146107 -8.87603e-005 -2.63497e-007 2.99804e-018 -2.42657e-020 -1.42182e-022 0 0 -0 -0.0187562 -0.001176 5.858e-005 5.06224e-018 3.88251e-019 1.21329e-020 0 0 -0 -0.012269 -0.00324817 0.000675346 -1.74678e-018 3.88251e-019 -0 0 0 -0 0 0 -0 0 0 -0 0 0 -0 0 0 -0 0 0 -0 0 0 -0 0 0 -0 0 0 -0 0 0 -0 0 0 -0 0.0149955 -9.10982e-005 2.64101e-007 -9.69331e-018 1.21329e-020 -4.7394e-023 0 0 -0 0.0189956 -0.00119102 -5.96516e-005 -5.41541e-019 0 2.42657e-020 0 0 -0 0.0122698 -0.00324857 -0.000673756 -2.00796e-019 0 -1.94126e-019 0 0 -0 0 0 -0 0 0 -0 3.39842 1.33031 -0.0637918 -5.65207e-008 0.834868 -0.000436188 -3.39935 -2.16518 -0.0642563 -8.89002e-024 -1.18485e-023 -1.48106e-024 -3.39844 1.35642 0.0640283 -3.18788e-007 0.782166 -0.000588827 3.39931 -2.13858 0.0634662 1.1399e-023 0 -0 
1.20704 38.0105 -1.40635 0 20.0836 -0 0.194658 -2.53437 -0.17359 0.382182 -5.06931 -0.339049 0.382182 -5.06931 -0.339049 5.22138e-006 -0.27527 -4.39229e-006 -4.73898e-008 -0.405558 -2.12055e-007 -7.75846 7.60867 -23.0562 -35.3864 -3.59804 18.9381 -26.9016 31.5675 -55.943 29.5017 -14.7758 -2.00314 1.59028e-015 3.18055e-015 -2.22639e-014 6.16269e-007 2.77539e-008 -3.90641e-006 9.75249e-006 1.5375e-006 4.75069e-007 1.59028e-015 3.18055e-015 -2.22639e-014 -0.0146014 -8.92256e-005 -6.95196e-007 1.10309e-005 8.89523e-007 2.99257e-006 1.59028e-015 3.18055e-015 -2.22639e-014 -0.0187149 -0.00117345 5.95481e-005 1.10305e-005 8.89314e-007 2.9925e-006 1.59028e-015 3.18055e-015 -2.22639e-014 -0.0122394 -0.00323904 0.00066826 1.10312e-005 8.89242e-007 2.99231e-006 1.59028e-015 3.18055e-015 -2.22639e-014 6.16269e-007 2.77539e-008 -3.90641e-006 9.75249e-006 1.5375e-006 4.75069e-007 7.76803 7.60701 23.0593 35.4001 -3.60373 -18.9506 26.9081 31.5817 55.942 -29.5283 -14.7663 1.99692 1.59028e-015 -4.77083e-015 3.18055e-015 1.59028e-015 -7.95139e-015 3.18055e-015 7.95139e-015 -1.11319e-014 -0 1.59028e-015 -4.77083e-015 3.18055e-015 0.0149744 -9.25873e-005 -5.78928e-006 -1.59028e-015 -1.59028e-015 -6.36111e-015 1.59028e-015 -4.77083e-015 3.18055e-015 0.0190134 -0.00119263 -6.39049e-005 1.76556e-031 -3.18055e-015 3.18055e-015 1.59028e-015 -4.77083e-015 3.18055e-015 0.0122737 -0.00324537 -0.000674124 -2.64834e-031 -4.77083e-015 -3.18055e-015 1.59028e-015 -4.77083e-015 3.18055e-015 1.59028e-015 -7.95139e-015 3.18055e-015 7.95139e-015 -1.11319e-014 -0 -4.35923 -25.1043 -13.1188 -9.4239 79.5294 7.96778 8.87872 33.4008 -16.5033 -9.01392e-007 -3.11808e-007 -1.28563e-006 4.39908 -25.4672 13.1253 9.4322 79.6252 -7.95049 -8.77195 33.3178 16.4891 7.84733e-007 -2.70181e-007 1.11175e-006 
1.75 24.3539 -3.54768 0 28.6955 -0 0.287767 -3.50796 -0.250501 0.561716 -7.01711 -0.484675 0.561716 -7.01711 -0.484675 2.40974e-006 -0.439764 3.97872e-006 -2.61881e-007 -0.805257 2.46048e-007 -9.18185 9.72848 -33.8103 -50.6307 -4.91721 27.5626 -26.6055 23.2202 -80.626 42.4997 -21.4568 -3.13973 7.95139e-016 3.97569e-016 -3.18055e-015 -1.32417e-031 -1.19271e-015 -6.36111e-015 7.95139e-016 -1.19271e-015 -3.18055e-015 7.95139e-016 3.97569e-016 -3.18055e-015 -0.014623 -8.75906e-005 7.30938e-007 -3.53113e-031 -3.18055e-015 -6.36111e-015 7.95139e-016 3.97569e-016 -3.18055e-015 -0.0187583 -0.00118019 5.4592e-005 7.95139e-016 -7.95139e-016 -3.18055e-015 7.95139e-016 3.97569e-016 -3.18055e-015 -0.0122466 -0.00324329 0.000676798 7.95139e-016 3.97569e-016 -0 7.95139e-016 3.97569e-016 -3.18055e-015 -1.32417e-031 -1.19271e-015 -6.36111e-015 7.95139e-016 -1.19271e-015 -3.18055e-015 9.13665 9.73015 33.7873 50.5726 -4.9017 -27.5311 26.5913 23.1714 80.6021 -42.4195 -21.4858 3.14744 5.64449e-007 6.54327e-007 3.78902e-008 -1.59028e-015 -1.59028e-015 9.54166e-015 -1.59028e-015 -1.59028e-015 1.90833e-014 5.64449e-007 6.54327e-007 3.78902e-008 0.0149837 -8.82171e-005 -3.15364e-006 7.95139e-016 7.95139e-016 -0 5.64449e-007 6.54327e-007 3.78902e-008 0.0189638 -0.00119144 -5.78785e-005 7.95139e-016 -1.59028e-015 -3.18055e-015 5.64449e-007 6.54327e-007 3.78902e-008 0.0122623 -0.00324596 -0.000676885 -1.59028e-015 -7.95139e-016 3.18055e-015 5.64449e-007 6.54327e-007 3.78902e-008 -1.59028e-015 -1.59028e-015 9.54166e-015 -1.59028e-015 -1.59028e-015 1.90833e-014 -11.359 -35.0972 -21.822 -173.196 66.8211 169.73 25.4559 47.6531 -31.3671 -1.39515e-007 -2.30575e-007 -8.09964e-007 11.4936 -35.6043 21.8973 173.326 66.6855 -169.828 -25.2487 47.5387 31.301 3.58105e-008 -5.76471e-008 2.0233e-007 
1.62936 27.3723 -2.70212 0 25.8356 -0 0.263825 -2.92215 -0.236413 0.516567 -5.84534 -0.460231 0.516566 -5.84534 -0.460231 -6.54509e-006 -0.492693 2.49746e-006 -7.15231e-008 -1.19922 3.91346e-007 -8.63146 8.70163 -31.6605 -47.4525 -4.70317 25.7525 -26.2261 26.4593 -76.3769 39.8285 -20.0773 -3.14642 2.48481e-016 6.4605e-016 3.18055e-015 3.47873e-016 0 -0 1.49089e-016 8.94531e-016 -0 2.48481e-016 6.4605e-016 3.18055e-015 -0.0145897 -8.22226e-005 6.91476e-006 4.96962e-016 -5.46658e-016 -0 2.48481e-016 6.4605e-016 3.18055e-015 -0.0187386 -0.00117741 6.15947e-005 1.49089e-016 6.4605e-016 1.27222e-014 2.48481e-016 6.4605e-016 3.18055e-015 -0.0122755 -0.00324697 0.000671663 1.3418e-015 2.48481e-016 9.54166e-015 2.48481e-016 6.4605e-016 3.18055e-015 3.47873e-016 0 -0 1.49089e-016 8.94531e-016 -0 8.46552 8.71034 31.5823 47.2377 -4.63966 -25.6208 26.1713 26.2621 76.2951 -39.506 -20.1924 3.18888 -7.95139e-016 1.39149e-015 -0 -7.95139e-016 7.95139e-016 -0 -3.97569e-016 3.97569e-016 -0 -7.95139e-016 1.39149e-015 -0 0.014983 -9.01341e-005 -6.42027e-007 -3.97569e-016 7.95139e-016 6.36111e-015 -7.95139e-016 1.39149e-015 -0 0.0189659 -0.00119064 -5.93576e-005 -7.95139e-016 7.95139e-016 6.36111e-015 -7.95139e-016 1.39149e-015 -0 0.0122683 -0.00324788 -0.000670212 0 1.78906e-015 -0 -7.95139e-016 1.39149e-015 -0 -7.95139e-016 7.95139e-016 -0 -3.97569e-016 3.97569e-016 -0 -9.37387 -31.5953 -19.2641 -170.582 74.5553 167.727 20.7491 44.7786 -27.1938 -8.24982e-008 -8.16091e-008 -2.98357e-007 9.47364 -32.0706 19.3104 170.775 74.4275 -167.889 -20.571 44.6701 27.1458 2.51271e-007 -2.44809e-007 8.94033e-007 
1.62937 27.3714 -2.40253 0 25.0605 -0 0.261434 -2.61944 -0.238663 0.512736 -5.23992 -0.466075 0.512736 -5.23991 -0.466075 -7.55031e-007 -0.566113 -2.94731e-006 1.52806e-007 -1.59482 -7.14091e-008 -8.37547 8.18045 -31.8645 -47.5931 -4.74619 25.8425 -26.2611 26.5886 -76.4283 39.9861 -20.1629 -3.36741 -3.47873e-016 2.98177e-016 9.54166e-015 2.48481e-016 4.47266e-016 3.18055e-015 3.47873e-016 7.45443e-016 6.36111e-015 -3.47873e-016 2.98177e-016 9.54166e-015 -0.0146212 -9.07706e-005 6.18815e-007 1.79315e-031 -6.4605e-016 1.59028e-014 -3.47873e-016 2.98177e-016 9.54166e-015 -0.0187207 -0.00117649 6.06475e-005 2.48481e-016 -5.46658e-016 3.18055e-015 -3.47873e-016 2.98177e-016 9.54166e-015 -0.0122647 -0.00324541 0.000673765 3.97569e-016 3.97569e-016 -3.18055e-015 -3.47873e-016 2.98177e-016 9.54166e-015 2.48481e-016 4.47266e-016 3.18055e-015 3.47873e-016 7.45443e-016 6.36111e-015 8.10043 8.19565 31.7352 47.2377 -4.63968 -25.6208 26.1713 26.2622 76.2951 -39.4447 -20.3544 3.44165 3.97569e-016 1.98785e-016 6.36111e-015 7.95139e-016 -3.97569e-016 6.36111e-015 1.19271e-015 -1.98785e-016 9.54166e-015 3.97569e-016 1.98785e-016 6.36111e-015 0.0150318 -9.36558e-005 -5.33116e-006 -7.95139e-016 -5.96354e-016 -3.18055e-015 3.97569e-016 1.98785e-016 6.36111e-015 0.0190026 -0.00118668 -6.60907e-005 4.41391e-032 3.97569e-016 -6.36111e-015 3.97569e-016 1.98785e-016 6.36111e-015 0.0122666 -0.00324449 -0.000674025 -3.01943e-007 5.496e-009 -1.0804e-007 3.97569e-016 1.98785e-016 6.36111e-015 7.95139e-016 -3.97569e-016 6.36111e-015 1.19271e-015 -1.98785e-016 9.54166e-015 -9.2224 -30.5012 -19.0078 -170.462 74.9171 167.63 20.7344 44.7796 -27.1741 -5.50591e-008 -5.44187e-008 -1.98885e-007 9.31694 -30.975 19.0494 170.662 74.7859 -167.797 -20.5565 44.6712 27.1262 -2.79442e-007 2.72061e-007 -9.9329e-007 
